<?xml version="1.0" encoding="UTF-8"?>
<svg viewBox="0 0 800 800" xmlns="http://www.w3.org/2000/svg">
  <!-- Background circle -->
  <circle cx="400" cy="400" r="380" fill="#F4C542" stroke="#2C4B8C" stroke-width="40"/>
  
  <!-- Main emblem circle -->
  <circle cx="400" cy="400" r="300" fill="#F4C542" stroke="#2C4B8C" stroke-width="20"/>
  
  <!-- Decorative dots around the circle -->
  <g fill="#2C4B8C">
    <circle cx="400" cy="100" r="12"/>
    <circle cx="525" cy="125" r="12"/>
    <circle cx="625" cy="200" r="12"/>
    <circle cx="700" cy="300" r="12"/>
    <circle cx="725" cy="425" r="12"/>
    <circle cx="700" cy="550" r="12"/>
    <circle cx="625" cy="650" r="12"/>
    <circle cx="525" cy="725" r="12"/>
    <circle cx="400" cy="750" r="12"/>
    <circle cx="275" cy="725" r="12"/>
    <circle cx="175" cy="650" r="12"/>
    <circle cx="100" cy="550" r="12"/>
    <circle cx="75" cy="425" r="12"/>
    <circle cx="100" cy="300" r="12"/>
    <circle cx="175" cy="200" r="12"/>
    <circle cx="275" cy="125" r="12"/>
  </g>
  
  <!-- Radiating lines -->
  <g stroke="#2C4B8C" stroke-width="8" fill="none">
    <line x1="400" y1="120" x2="400" y2="180"/>
    <line x1="505" y1="145" x2="475" y2="195"/>
    <line x1="605" y1="220" x2="555" y2="255"/>
    <line x1="680" y1="320" x2="620" y2="340"/>
    <line x1="705" y1="445" x2="645" y2="425"/>
    <line x1="680" y1="530" x2="620" y2="510"/>
    <line x1="605" y1="630" x2="555" y2="595"/>
    <line x1="505" y1="705" x2="475" y2="655"/>
    <line x1="400" y1="730" x2="400" y2="670"/>
    <line x1="295" y1="705" x2="325" y2="655"/>
    <line x1="195" y1="630" x2="245" y2="595"/>
    <line x1="120" y1="530" x2="180" y2="510"/>
    <line x1="95" y1="445" x2="155" y2="425"/>
    <line x1="120" y1="320" x2="180" y2="340"/>
    <line x1="195" y1="220" x2="245" y2="255"/>
    <line x1="295" y1="145" x2="325" y2="195"/>
  </g>
  
  <!-- Person figure -->
  <g>
    <!-- Head -->
    <circle cx="320" cy="280" r="40" fill="#D4A574"/>
    <!-- Hair -->
    <path d="M285 250 Q320 230 355 250 Q355 270 320 280 Q285 270 285 250" fill="#C0C0C0"/>
    <!-- Glasses -->
    <circle cx="310" cy="275" r="8" fill="none" stroke="#2C4B8C" stroke-width="2"/>
    <circle cx="330" cy="275" r="8" fill="none" stroke="#2C4B8C" stroke-width="2"/>
    <line x1="318" y1="275" x2="322" y2="275" stroke="#2C4B8C" stroke-width="2"/>
    
    <!-- Body -->
    <ellipse cx="320" cy="380" rx="60" ry="80" fill="#4A7C59"/>
    
    <!-- Arm holding megaphone -->
    <ellipse cx="380" cy="350" rx="15" ry="40" fill="#4A7C59" transform="rotate(30 380 350)"/>
    
    <!-- Megaphone -->
    <polygon points="420,330 480,320 490,350 430,360" fill="#D2691E"/>
    <polygon points="480,320 520,310 530,360 490,350" fill="#F4A460"/>
    
    <!-- Sound waves -->
    <g stroke="#40E0D0" stroke-width="4" fill="none">
      <path d="M530 325 Q550 335 530 345"/>
      <path d="M540 315 Q570 335 540 355"/>
      <path d="M550 305 Q590 335 550 365"/>
    </g>
  </g>
</svg>